<svg xmlns="http://www.w3.org/2000/svg" enable-background="new 0 0 24 24" viewBox="0 0 24 24" id="Group">
  <g id="_icons" fill="#000000" class="color000000 svgShape">
    <circle cx="8.5" cy="7.5" r="3.5" fill="#8c8cff" class="color944cf2 svgShape"></circle>
    <path fill="#d1d1fd" d="M21.6147,15.1329c-0.0009-0.0038-0.0017-0.0077-0.0026-0.0115l-0.0769-0.2983
		c-0.3479-1.413-1.3335-2.6004-2.6414-3.1847c-0.0547-0.0282-0.106-0.0487-0.1556-0.0697c-1.8789-0.7582-3.9262-0.7582-5.8034,0
		c-1.3882,0.5595-2.4337,1.7759-2.7987,3.2556l-0.0744,0.3043c-0.1436,0.5886-0.0282,1.2122,0.3154,1.7114
		c0.3496,0.5061,0.9018,0.8399,1.5156,0.9164C13.1955,17.9179,14.5222,18,15.836,18c1.3173,0,2.6457-0.0821,3.9468-0.2445
		c0.6138-0.0761,1.1651-0.4095,1.5148-0.9142C21.6412,16.3438,21.7575,15.721,21.6147,15.1329z" class="colord1e7fd svgShape"></path>
    <circle cx="16" cy="7" r="3" fill="#8c8cff" class="color944cf2 svgShape"></circle>
    <path fill="#ababff" d="M15.6016,16.7246c-0.001-0.0044-0.002-0.0088-0.0029-0.0132l-0.0879-0.3408
		c-0.3975-1.6143-1.5234-2.9707-3.0176-3.6382c-0.0625-0.0322-0.1211-0.0557-0.1777-0.0796c-2.1465-0.8662-4.4854-0.8662-6.6299,0
		c-1.5859,0.6392-2.7803,2.0288-3.1973,3.7192l-0.085,0.3477c-0.1641,0.6724-0.0322,1.3848,0.3604,1.9551
		c0.3994,0.5781,1.0303,0.9595,1.7314,1.0469C5.9834,19.9063,7.499,20,9,20c1.5049,0,3.0225-0.0938,4.5088-0.2793
		c0.7012-0.0869,1.3311-0.4678,1.7305-1.0444C15.6318,18.1079,15.7646,17.3965,15.6016,16.7246z" class="color81caff svgShape"></path>
  </g>
</svg>
